<svg xmlns="http://www.w3.org/2000/svg" viewBox="0 0 512 512">
  <path d="M40 112c46-46 133-74 216-4 83-70 170-42 216 4v332c-72-40-150-42-216 14-66-56-144-54-216-14V112z" fill="#b86b2d"/>
  <path d="M78 124c45-37 108-45 168 0v286c-56-32-116-36-168-10V124z" fill="#fff8eb"/>
  <path d="M266 124c60-45 123-37 168 0v276c-52-26-112-22-168 10V124z" fill="#f8ecd5"/>
  <rect x="248" y="112" width="18" height="320" rx="9" fill="#9d6a45"/>
  <rect x="126" y="160" width="96" height="24" rx="12" fill="#9d6a45"/>
  <rect x="126" y="218" width="108" height="24" rx="12" fill="#9d6a45"/>
  <rect x="126" y="276" width="84" height="24" rx="12" fill="#9d6a45"/>
  <rect x="314" y="160" width="72" height="24" rx="12" fill="#9d6a45"/>
  <rect x="314" y="218" width="72" height="24" rx="12" fill="#9d6a45"/>
  <rect x="314" y="276" width="72" height="24" rx="12" fill="#9d6a45"/>
</svg>
