<svg xmlns="http://www.w3.org/2000/svg" viewBox="0 0 512 512">
  <rect width="512" height="512" rx="108" fill="#f0dfc2"/>
  <path d="M92 143c0-28 23-51 51-51h74c35 0 66 14 89 37 23-23 54-37 89-37h24c28 0 51 23 51 51v242c0 22-18 40-40 40h-42c-30 0-59 10-82 28-23-18-52-28-82-28h-92c-22 0-40-18-40-40V143z" fill="#b86b2d"/>
  <path d="M128 146c0-14 11-25 25-25h60c32 0 61 14 81 36v238c-23-14-50-22-78-22h-88V146z" fill="#fff8eb"/>
  <path d="M318 157c20-22 49-36 81-36h16c14 0 25 11 25 25v227h-88c-28 0-55 8-78 22V157z" fill="#f8ecd5"/>
  <path d="M306 143v276" stroke="#9b5f2a" stroke-width="18" stroke-linecap="round"/>
  <path d="M164 184h82M164 226h88M164 268h70M356 184h42M356 226h42M356 268h42" stroke="#7a4a29" stroke-width="18" stroke-linecap="round"/>
</svg>
