<svg xmlns="http://www.w3.org/2000/svg" viewBox="0 0 512 512">
  <path d="M18 96c50-56 148-80 238-5 90-75 188-51 238 5v370c-78-48-166-50-238 12-72-62-160-60-238-12V96z" fill="#b86b2d"/>
  <path d="M58 115c52-42 122-50 188 0v318c-62-38-130-40-188-12V115z" fill="#fff8eb"/>
  <path d="M266 115c66-50 136-42 188 0v306c-58-28-126-26-188 12V115z" fill="#f8ecd5"/>
  <rect x="247" y="96" width="20" height="360" rx="10" fill="#9d6a45"/>
  <rect x="112" y="156" width="104" height="28" rx="14" fill="#9d6a45"/>
  <rect x="112" y="224" width="118" height="28" rx="14" fill="#9d6a45"/>
  <rect x="112" y="292" width="92" height="28" rx="14" fill="#9d6a45"/>
  <rect x="314" y="156" width="82" height="28" rx="14" fill="#9d6a45"/>
  <rect x="314" y="224" width="82" height="28" rx="14" fill="#9d6a45"/>
  <rect x="314" y="292" width="82" height="28" rx="14" fill="#9d6a45"/>
</svg>
